<svg width="96" height="96" viewBox="0 0 96 96" fill="none" xmlns="http://www.w3.org/2000/svg">
<path fill-rule="evenodd" clip-rule="evenodd" d="M5.07068 68.2588C7.85331 74.1063 11.6038 79.0667 16.3625 83.1801C21.1212 87.2936 26.3639 90.3182 32.0904 92.2539C37.817 94.1897 43.7855 95.1172 49.9154 94.9559C56.0856 94.8349 62.0541 93.3831 67.9017 90.6408C73.4669 87.9791 78.3466 84.3093 82.4601 79.5506C86.5735 74.7919 89.6788 69.5896 91.8162 63.9033C93.9536 58.2171 94.9214 52.2485 94.7198 45.9574C94.6795 44.7475 94.5988 43.578 94.4778 42.3682C93.8729 36.8836 89.9208 38.0934 86.4929 39.7469L79.7984 42.9328C75.0397 45.7557 73.4266 45.7154 72.7814 50.7967C72.5394 52.6518 72.0958 54.4666 71.4506 56.241C70.2004 59.5882 68.3453 62.5725 66.0063 65.2745C63.9092 67.6942 61.4895 69.5896 58.5859 70.9607C55.6823 72.3319 52.698 73.1384 49.5121 73.2191C45.9229 73.2998 42.4547 72.7755 39.0672 71.6463C35.9216 70.5978 33.139 68.904 30.6386 66.7263C28.098 64.5486 26.2026 61.9273 24.7911 58.9027C23.5006 56.1604 22.8956 53.2164 22.815 50.1918C22.694 46.6833 23.2183 43.3361 24.3878 40.0292C25.638 36.561 27.4124 33.4154 29.7514 30.5521C31.7275 28.1727 34.0665 26.3983 36.8491 25.0675C39.7527 23.6963 42.737 23.0108 45.9633 22.9301C49.5121 22.8494 52.9803 23.2931 56.3679 24.4222C59.5135 25.4708 62.2961 27.1645 64.8368 29.3422C65.361 29.7859 65.8449 30.2295 66.2886 30.7134C68.6679 33.1734 71.2489 32.6491 73.5476 31.3183L82.2181 27.2049C83.9119 26.2773 87.864 23.535 85.4847 19.9458C83.5489 17.0019 81.7342 15.2275 79.0725 12.8884C74.3138 8.77498 69.0712 5.75038 63.3446 3.81464C57.618 1.8789 51.6092 0.991681 45.318 1.19332C39.0268 1.35463 33.0986 2.80644 27.5334 5.42776C21.6858 8.21039 16.8061 12.0012 12.8943 16.8002C8.94217 21.5993 5.9579 26.9226 3.90117 32.7298C1.84444 38.537 0.916898 44.5459 1.07821 50.8371C1.15887 57.1686 2.53001 62.9355 5.07068 68.2588Z" fill="white"  vector-effect="non-scaling-stroke"/>
</svg>
